<svg width="24" height="23" viewBox="0 0 24 23" fill="none" xmlns="http://www.w3.org/2000/svg">
<path d="M20.3911 5.21777C21.5558 5.21777 22.5 4.27359 22.5 3.10888C22.5 1.94418 21.5558 1 20.3911 1C19.2264 1 18.2822 1.94418 18.2822 3.10888C18.2822 4.27359 19.2264 5.21777 20.3911 5.21777Z" stroke="black" stroke-width="1.5" stroke-linecap="round" stroke-linejoin="round"/>
<path d="M15.5 1.92401H6.8531C3.54884 1.92401 1.5 4.26411 1.5 7.56837V16.4366C1.5 19.7409 3.50867 22.0709 6.8531 22.0709H16.2938C19.5981 22.0709 21.6469 19.7409 21.6469 16.4366V8.00006C16.3067 7.92537 15.4963 7.14888 15.5 1.92401Z" fill="black" stroke="black" stroke-width="1.5" stroke-linecap="round" stroke-linejoin="round"/>
<path d="M6.40137 14.7187L9.68539 10.4505L13.4313 13.3933L16.6451 9.24573" stroke="white" stroke-width="1.5" stroke-linecap="round" stroke-linejoin="round"/>
</svg>
