<svg width="19" height="22" viewBox="0 0 19 22" fill="none" xmlns="http://www.w3.org/2000/svg">
<path d="M16.0467 11.1532C15.9681 11.073 15.8744 11.0092 15.771 10.9655C15.6675 10.9218 15.5564 10.8992 15.4441 10.8989C15.3318 10.8986 15.2206 10.9207 15.1169 10.9638C15.0132 11.007 14.9192 11.0703 14.8402 11.1502C14.7613 11.23 14.699 11.3248 14.6571 11.4289C14.6151 11.5331 14.5943 11.6445 14.5959 11.7568C14.5974 11.8691 14.6213 11.9799 14.6661 12.0829C14.711 12.1858 14.7758 12.2788 14.857 12.3565C15.5749 13.0629 16.1444 13.9056 16.5322 14.8351C16.9201 15.7646 17.1183 16.7622 17.1154 17.7693C17.1154 18.8042 14.1488 20.3078 9.49999 20.3078C4.85122 20.3078 1.88461 18.8033 1.88461 17.7676C1.88172 16.7673 2.0773 15.7764 2.46002 14.8522C2.84274 13.928 3.40499 13.0889 4.11422 12.3835C4.19504 12.3055 4.2595 12.2121 4.30385 12.1089C4.34819 12.0057 4.37153 11.8946 4.37251 11.7823C4.37349 11.6699 4.35208 11.5585 4.30953 11.4545C4.26699 11.3505 4.20416 11.256 4.12471 11.1766C4.04526 11.0972 3.95079 11.0343 3.8468 10.9918C3.74281 10.9492 3.63139 10.9278 3.51904 10.9288C3.40668 10.9298 3.29565 10.9531 3.19242 10.9975C3.08918 11.0418 2.99582 11.1063 2.91776 11.1871C2.05076 12.0495 1.36344 13.0753 0.895611 14.2052C0.427781 15.335 0.18873 16.5464 0.1923 17.7693C0.1923 20.5176 4.98745 22.0001 9.49999 22.0001C14.0125 22.0001 18.8077 20.5176 18.8077 17.7693C18.8114 16.5382 18.5691 15.3187 18.095 14.1826C17.6208 13.0464 16.9244 12.0165 16.0467 11.1532Z" fill="black"/>
<path d="M14.6571 11.4289C14.699 11.3248 14.7613 11.23 14.8402 11.1502C10.8315 13.6885 8.47016 13.6895 4.12471 11.1766C4.20416 11.256 4.26699 11.3505 4.30953 11.4545C4.35208 11.5585 4.37349 11.6699 4.37251 11.7823C4.37153 11.8946 4.34819 12.0057 4.30385 12.1089C4.2595 12.2121 4.19504 12.3055 4.11422 12.3835C3.40499 13.0889 2.84274 13.928 2.46002 14.8522C2.0773 15.7764 1.88172 16.7673 1.88461 17.7676C1.88461 18.8033 4.85122 20.3078 9.49999 20.3078C14.1488 20.3078 17.1154 18.8042 17.1154 17.7693C17.1183 16.7622 16.9201 15.7646 16.5322 14.8351C16.1444 13.9056 15.5749 13.0629 14.857 12.3565C14.7758 12.2788 14.711 12.1858 14.6661 12.0829C14.6213 11.9799 14.5974 11.8691 14.5959 11.7568C14.5943 11.6445 14.6151 11.5331 14.6571 11.4289Z" fill="black"/>
<path d="M9.50001 11.8462C10.6715 11.8462 11.8166 11.4988 12.7907 10.8479C13.7647 10.1971 14.5239 9.27204 14.9722 8.18974C15.4205 7.10744 15.5378 5.91651 15.3093 4.76754C15.0807 3.61858 14.5166 2.56319 13.6883 1.73483C12.8599 0.906474 11.8045 0.342356 10.6555 0.113813C9.50658 -0.11473 8.31565 0.00256637 7.23335 0.45087C6.15105 0.899173 5.22599 1.65835 4.57515 2.63239C3.92432 3.60644 3.57693 4.7516 3.57693 5.92308C3.57873 7.49342 4.20334 8.99894 5.31374 10.1093C6.42415 11.2197 7.92966 11.8444 9.50001 11.8462ZM9.50001 1.69231C10.3368 1.69231 11.1548 1.94044 11.8505 2.40532C12.5462 2.8702 13.0885 3.53096 13.4087 4.30403C13.7289 5.0771 13.8127 5.92777 13.6495 6.74846C13.4862 7.56915 13.0833 8.323 12.4916 8.91468C11.8999 9.50636 11.1461 9.90931 10.3254 10.0726C9.5047 10.2358 8.65404 10.152 7.88096 9.8318C7.10789 9.51158 6.44714 8.96931 5.98225 8.27356C5.51737 7.57782 5.26924 6.75984 5.26924 5.92308C5.27059 4.80142 5.71676 3.72609 6.50989 2.93296C7.30302 2.13982 8.37835 1.69365 9.50001 1.69231Z" fill="black"/>
<path d="M9.50001 1.69231C10.3368 1.69231 11.1548 1.94044 11.8505 2.40532C12.5462 2.8702 13.0885 3.53096 13.4087 4.30403C13.7289 5.0771 13.8127 5.92777 13.6495 6.74846C13.4862 7.56915 13.0833 8.323 12.4916 8.91468C11.8999 9.50636 11.1461 9.90931 10.3254 10.0726C9.5047 10.2358 8.65404 10.152 7.88096 9.8318C7.10789 9.51158 6.44714 8.96931 5.98225 8.27356C5.51737 7.57782 5.26924 6.75984 5.26924 5.92308C5.27059 4.80142 5.71676 3.72609 6.50989 2.93296C7.30302 2.13982 8.37835 1.69365 9.50001 1.69231Z" fill="black"/>
</svg>
