<svg width="19" height="22" viewBox="0 0 19 22" fill="none" xmlns="http://www.w3.org/2000/svg">
<path d="M16.2389 11.1532C16.1604 11.0729 16.0667 11.0091 15.9632 10.9655C15.8598 10.9218 15.7487 10.8992 15.6364 10.8989C15.5241 10.8986 15.4129 10.9206 15.3092 10.9638C15.2055 11.0069 15.1115 11.0702 15.0325 11.1501C14.9536 11.2299 14.8913 11.3247 14.8493 11.4289C14.8074 11.533 14.7866 11.6445 14.7881 11.7568C14.7897 11.869 14.8136 11.9799 14.8584 12.0828C14.9032 12.1858 14.9681 12.2788 15.0492 12.3564C15.7671 13.0628 16.3367 13.9055 16.7245 14.835C17.1123 15.7645 17.3106 16.7621 17.3076 17.7693C17.3076 18.8041 14.341 20.3077 9.69225 20.3077C5.04348 20.3077 2.07687 18.8033 2.07687 17.7676C2.07398 16.7673 2.26956 15.7763 2.65228 14.8522C3.035 13.928 3.59725 13.0889 4.30648 12.3835C4.3873 12.3054 4.45176 12.2121 4.49611 12.1088C4.54045 12.0056 4.56379 11.8946 4.56477 11.7822C4.56575 11.6699 4.54434 11.5584 4.50179 11.4544C4.45925 11.3505 4.39642 11.256 4.31697 11.1765C4.23752 11.0971 4.14305 11.0343 4.03906 10.9917C3.93507 10.9492 3.82365 10.9278 3.7113 10.9287C3.59894 10.9297 3.48791 10.9531 3.38468 10.9974C3.28144 11.0417 3.18808 11.1062 3.11002 11.187C2.24302 12.0494 1.5557 13.0752 1.08787 14.2051C0.620042 15.3349 0.380991 16.5464 0.384561 17.7693C0.384561 20.5176 5.17971 22 9.69225 22C14.2048 22 18.9999 20.5176 18.9999 17.7693C19.0037 16.5381 18.7614 15.3187 18.2872 14.1825C17.8131 13.0464 17.1167 12.0164 16.2389 11.1532Z" fill="black"/>
<path d="M9.69236 11.8462C10.8638 11.8462 12.009 11.4988 12.983 10.8479C13.9571 10.1971 14.7163 9.27204 15.1646 8.18974C15.6129 7.10744 15.7302 5.91651 15.5016 4.76754C15.2731 3.61858 14.709 2.56319 13.8806 1.73483C13.0522 0.906474 11.9969 0.342356 10.8479 0.113813C9.69893 -0.11473 8.508 0.00256637 7.4257 0.45087C6.3434 0.899173 5.41834 1.65835 4.7675 2.63239C4.11667 3.60644 3.76929 4.7516 3.76929 5.92308C3.77108 7.49342 4.39569 8.99894 5.50609 10.1093C6.6165 11.2197 8.12201 11.8444 9.69236 11.8462ZM9.69236 1.69231C10.5291 1.69231 11.3471 1.94044 12.0428 2.40532C12.7386 2.8702 13.2809 3.53096 13.6011 4.30403C13.9213 5.0771 14.0051 5.92777 13.8418 6.74846C13.6786 7.56915 13.2756 8.323 12.684 8.91468C12.0923 9.50636 11.3384 9.90931 10.5177 10.0726C9.69705 10.2358 8.84639 10.152 8.07332 9.8318C7.30025 9.51158 6.63949 8.96931 6.17461 8.27356C5.70972 7.57782 5.46159 6.75984 5.46159 5.92308C5.46294 4.80142 5.90911 3.72609 6.70224 2.93296C7.49537 2.13982 8.5707 1.69365 9.69236 1.69231Z" fill="black"/>
</svg>
