<svg width="59" height="55" viewBox="0 0 59 55" fill="none" xmlns="http://www.w3.org/2000/svg">
<g filter="url(#filter0_d_595_1329)">
<circle cx="27.5" cy="27.5" r="19.5" fill="white"/>
</g>
<path d="M37.4258 35.3077L36.9311 35.8025C36.7214 36.0119 36.4371 36.1295 36.1407 36.1295C35.8444 36.1295 35.5601 36.0119 35.3504 35.8025L34.3633 34.8153C33.9901 34.4424 33.4841 34.2329 32.9566 34.2329C32.429 34.2329 31.923 34.4424 31.5499 34.8153L30.5627 35.8025C30.353 36.0119 30.0688 36.1295 29.7724 36.1295C29.476 36.1295 29.1918 36.0119 28.9821 35.8025L27.9949 34.8153C27.6218 34.4424 27.1158 34.2329 26.5882 34.2329C26.0607 34.2329 25.5547 34.4424 25.1815 34.8153L24.1944 35.8025C23.9847 36.0119 23.7004 36.1295 23.4041 36.1295C23.1077 36.1295 22.8235 36.0119 22.6138 35.8025L21.6266 34.8153C20.8862 34.0436 19.5536 34.0436 18.8132 34.8153L17.826 35.8025C17.6163 36.0119 17.3321 36.1295 17.0357 36.1295C16.7394 36.1295 16.4551 36.0119 16.2454 35.8025L15.7507 35.3077C15.3366 34.9169 14.7385 35.4959 15.1346 35.9239L15.6189 36.4186C15.9921 36.7902 16.4974 36.9988 17.0241 36.9988C17.5508 36.9988 18.0561 36.7902 18.4294 36.4186L19.4165 35.4314C19.8329 34.9977 20.5814 34.9977 20.9977 35.4314L21.9849 36.4186C22.3582 36.7909 22.864 37 23.3913 37C23.9186 37 24.4243 36.7909 24.7977 36.4186L25.7849 35.4314C25.8888 35.3267 26.0124 35.2436 26.1486 35.1869C26.2848 35.1301 26.4308 35.1009 26.5784 35.1009C26.7259 35.1009 26.872 35.1301 27.0081 35.1869C27.1443 35.2436 27.268 35.3267 27.3719 35.4314L28.359 36.4186C28.7325 36.7908 29.2382 36.9998 29.7654 36.9998C30.2927 36.9998 30.7984 36.7908 31.1718 36.4186L32.159 35.4314C32.2628 35.3276 32.3861 35.2452 32.5217 35.189C32.6574 35.1328 32.8028 35.1038 32.9496 35.1038C33.0964 35.1038 33.2418 35.1328 33.3775 35.189C33.5131 35.2452 33.6364 35.3276 33.7402 35.4314L34.7274 36.4186C35.1007 36.7909 35.6065 37 36.1338 37C36.6611 37 37.1668 36.7909 37.5402 36.4186L38.0349 35.9239C38.4327 35.504 37.8514 34.914 37.4258 35.3077ZM15.6189 32.8538C16.3592 33.6249 17.6913 33.6255 18.4317 32.8538L19.4188 31.8666C19.6286 31.6572 19.913 31.5395 20.2094 31.5395C20.5059 31.5395 20.7902 31.6572 21 31.8666L21.9872 32.8538C22.0689 32.9359 22.1799 32.9823 22.2958 32.9826C22.4116 32.9829 22.5229 32.9372 22.605 32.8555C22.6872 32.7738 22.7335 32.6628 22.7339 32.547C22.7342 32.4311 22.6885 32.3198 22.6068 32.2377L21.6196 31.2505C21.2465 30.8776 20.7405 30.6681 20.2129 30.6681C19.6854 30.6681 19.1794 30.8776 18.8062 31.2505L17.8191 32.2377C17.4033 32.6714 16.6542 32.6714 16.2384 32.2377L15.7437 31.7429C15.7032 31.7025 15.6552 31.6704 15.6024 31.6485C15.5495 31.6266 15.4929 31.6153 15.4357 31.6153C15.3784 31.6153 15.3218 31.6266 15.2689 31.6485C15.2161 31.6704 15.1681 31.7025 15.1276 31.7429C15.0871 31.7834 15.0551 31.8314 15.0332 31.8843C15.0113 31.9371 15 31.9938 15 32.051C15 32.1082 15.0113 32.1649 15.0332 32.2177C15.0551 32.2706 15.0871 32.3186 15.1276 32.359L15.6189 32.8538ZM37.4258 31.7429L36.9311 32.2377C36.8273 32.3415 36.7041 32.4239 36.5685 32.4801C36.4329 32.5363 36.2875 32.5652 36.1407 32.5652C35.994 32.5652 35.8486 32.5363 35.713 32.4801C35.5774 32.4239 35.4542 32.3415 35.3504 32.2377L34.3633 31.2505C33.9898 30.8782 33.4839 30.6691 32.9566 30.6691C32.4292 30.6691 31.9233 30.8782 31.5499 31.2505L30.5627 32.2377C30.481 32.3194 30.4351 32.4302 30.4351 32.5457C30.4351 32.6613 30.481 32.7721 30.5627 32.8538C30.6444 32.9355 30.7552 32.9814 30.8708 32.9814C30.9863 32.9814 31.0971 32.9355 31.1788 32.8538L32.166 31.8666C32.3758 31.6572 32.6601 31.5395 32.9566 31.5395C33.253 31.5395 33.5374 31.6572 33.7472 31.8666L34.7343 32.8538C35.4747 33.6255 36.8068 33.6255 37.5472 32.8538L38.0419 32.359C38.4344 31.938 37.8485 31.3498 37.4258 31.7429ZM26.6065 17C26.1033 17.0006 25.6208 17.2008 25.2649 17.5567C24.9091 17.9125 24.7089 18.395 24.7083 18.8982V27.6317C22.3182 29.4359 23.605 33.2864 26.6065 33.2899C29.6081 33.2934 30.8954 29.4347 28.5048 27.6317V18.8982C28.5042 18.395 28.304 17.9125 27.9481 17.5567C27.5923 17.2008 27.1098 17.0006 26.6065 17ZM28.8816 30.1426C28.758 33.1621 24.4545 33.1621 24.3291 30.1426C24.3286 29.7607 24.4244 29.3849 24.6077 29.05C24.791 28.715 25.0559 28.4317 25.3778 28.2263C25.4305 28.1927 25.4753 28.1481 25.5092 28.0956C25.543 28.0431 25.5652 27.9839 25.5741 27.922C25.5857 27.8419 25.5741 18.9795 25.5781 18.8994C25.5781 18.627 25.6864 18.3657 25.879 18.1731C26.0716 17.9804 26.3329 17.8722 26.6054 17.8722C26.8778 17.8722 27.1391 17.9804 27.3317 18.1731C27.5244 18.3657 27.6326 18.627 27.6326 18.8994V27.846C27.6309 27.9214 27.6487 27.996 27.6844 28.0625C27.7202 28.1289 27.7725 28.185 27.8364 28.2252C28.1578 28.4311 28.4221 28.7147 28.6048 29.0499C28.7875 29.385 28.8827 29.7609 28.8816 30.1426Z" fill="#00C2FF"/>
<path d="M27.0234 28.8796V19.2519C27.0234 19.1364 26.9775 19.0256 26.8959 18.9439C26.8142 18.8623 26.7034 18.8164 26.5879 18.8164C26.4724 18.8164 26.3616 18.8623 26.28 18.9439C26.1983 19.0256 26.1524 19.1364 26.1524 19.2519V28.8912C24.7454 29.4138 25.0845 31.4845 26.6048 31.513C28.1494 31.4776 28.4653 29.3796 27.0234 28.8796ZM26.6048 30.642C26.4778 30.6418 26.356 30.5913 26.2662 30.5015C26.1764 30.4117 26.1259 30.2899 26.1257 30.1629C26.1501 29.5282 27.06 29.5288 27.0838 30.1629C27.0837 30.2896 27.0334 30.4111 26.944 30.5009C26.8545 30.5906 26.7332 30.6414 26.6065 30.642H26.6048ZM29.8299 19.6874H32.6601C33.2362 19.6682 33.2373 18.8367 32.6601 18.8164H29.8299C29.7144 18.8164 29.6036 18.8623 29.5219 18.9439C29.4402 19.0256 29.3944 19.1364 29.3944 19.2519C29.3944 19.3674 29.4402 19.4782 29.5219 19.5598C29.6036 19.6415 29.7144 19.6874 29.8299 19.6874ZM29.8299 27.1184H32.6601C33.2362 27.0986 33.2373 26.2671 32.6601 26.2474H29.8299C29.7144 26.2474 29.6036 26.2932 29.5219 26.3749C29.4402 26.4566 29.3944 26.5674 29.3944 26.6829C29.3944 26.7984 29.4402 26.9092 29.5219 26.9908C29.6036 27.0725 29.7144 27.1184 29.8299 27.1184ZM29.8299 25.2608H31.4807C31.5963 25.2608 31.707 25.2149 31.7887 25.1332C31.8704 25.0516 31.9163 24.9408 31.9163 24.8253C31.9163 24.7098 31.8704 24.599 31.7887 24.5173C31.707 24.4356 31.5963 24.3898 31.4807 24.3898H29.8299C29.2538 24.4095 29.2527 25.2405 29.8299 25.2608ZM29.8299 23.4032H32.6601C33.2362 23.3834 33.2373 22.5519 32.6601 22.5322H29.8299C29.7144 22.5322 29.6036 22.578 29.5219 22.6597C29.4402 22.7414 29.3944 22.8522 29.3944 22.9677C29.3944 23.0832 29.4402 23.194 29.5219 23.2756C29.6036 23.3573 29.7144 23.4032 29.8299 23.4032ZM29.8299 21.545H31.4807C31.5963 21.545 31.707 21.4991 31.7887 21.4174C31.8704 21.3358 31.9163 21.225 31.9163 21.1095C31.9163 20.994 31.8704 20.8832 31.7887 20.8015C31.707 20.7199 31.5963 20.674 31.4807 20.674H29.8299C29.2538 20.6937 29.2527 21.5253 29.8299 21.545Z" fill="#00C2FF"/>
<defs>
<filter id="filter0_d_595_1329" x="0.4" y="0.4" width="58.2" height="58.2" filterUnits="userSpaceOnUse" color-interpolation-filters="sRGB">
<feFlood flood-opacity="0" result="BackgroundImageFix"/>
<feColorMatrix in="SourceAlpha" type="matrix" values="0 0 0 0 0 0 0 0 0 0 0 0 0 0 0 0 0 0 127 0" result="hardAlpha"/>
<feOffset dx="2" dy="2"/>
<feGaussianBlur stdDeviation="4.8"/>
<feComposite in2="hardAlpha" operator="out"/>
<feColorMatrix type="matrix" values="0 0 0 0 0 0 0 0 0 0 0 0 0 0 0 0 0 0 0.13 0"/>
<feBlend mode="normal" in2="BackgroundImageFix" result="effect1_dropShadow_595_1329"/>
<feBlend mode="normal" in="SourceGraphic" in2="effect1_dropShadow_595_1329" result="shape"/>
</filter>
</defs>
</svg>
